<svg xmlns="http://www.w3.org/2000/svg" viewBox="0 0 16 16" width="16" height="16">
  <defs>
    <linearGradient id="ghostGradient" x1="0%" y1="0%" x2="0%" y2="100%">
      <stop offset="0%" style="stop-color:#f8fafc;stop-opacity:1" />
      <stop offset="100%" style="stop-color:#e2e8f0;stop-opacity:1" />
    </linearGradient>
  </defs>
  <rect width="16" height="16" fill="#1a1a2e"/>
  <!-- Ghost body -->
  <path d="M4 4c0-2.2 1.8-4 4-4s4 1.8 4 4v8c0 0.3-0.1 0.6-0.3 0.8l-1.2 1.2c-0.3 0.3-0.8 0.3-1.1 0L8 12.6 6.6 14c-0.3 0.3-0.8 0.3-1.1 0L4.3 12.8C4.1 12.6 4 12.3 4 12V4z" fill="url(#ghostGradient)"/>
  <!-- Eyes -->
  <circle cx="6" cy="7" r="1" fill="#1a1a2e"/>
  <circle cx="10" cy="7" r="1" fill="#1a1a2e"/>
  <!-- Mouth -->
  <ellipse cx="8" cy="9.5" rx="1" ry="0.5" fill="#1a1a2e"/>
</svg>